<svg width="1594" height="2009" viewBox="0 0 1594 2009" fill="none" xmlns="http://www.w3.org/2000/svg">
<path d="M542.696 1174.06C208.579 1164.9 68.3639 1347.6 40.0207 1440.09C40.0207 1440.09 -104.979 1663 157.021 1750.5C419.021 1838 359.521 2009 733.021 2009C1106.52 2009 1214.02 1707 1477.02 1521C1740.02 1335 1477.02 0 1477.02 0C1382.65 52.0349 1226.53 227.864 1356.98 514.901C1520.04 873.696 960.341 1185.5 542.696 1174.06Z" fill="#1F2836"/>
<path d="M542.696 1174.06C208.579 1164.9 68.3639 1347.6 40.0207 1440.09C40.0207 1440.09 -104.979 1663 157.021 1750.5C419.021 1838 359.521 2009 733.021 2009C1106.52 2009 1214.02 1707 1477.02 1521C1740.02 1335 1477.02 0 1477.02 0C1382.65 52.0349 1226.53 227.864 1356.98 514.901C1520.04 873.696 960.341 1185.5 542.696 1174.06Z" fill="url(#paint0_linear)"/>
<defs>
<linearGradient id="paint0_linear" x1="759.02" y1="1155.5" x2="900.52" y2="1531" gradientUnits="userSpaceOnUse">
<stop stop-color="#1F2836"/>
<stop offset="1" stop-color="#1A222D"/>
</linearGradient>
</defs>
</svg>
